<?xml version="1.0" encoding="UTF-8"?>
<svg version="1.1" xmlns="http://www.w3.org/2000/svg" width="3509" height="2481">
 <circle cx="50" cy="50" r="50" fill="#074F51" />
<path d="M0 0 C3.36516303 0.00914732 6.72962942 0.0023539 10.09472656 -0.02050781 C82.96180175 -0.51278473 151.01732538 20.92686355 204.6340332 71.44604492 C205.80772461 72.53852539 205.80772461 72.53852539 207.00512695 73.65307617 C213.07847011 79.48824901 218.21830356 85.94082804 223.27856445 92.65063477 C224.14740349 93.80147091 225.0219179 94.94805723 225.90356445 96.08911133 C253.03166869 131.25876075 267.67282634 177.45394375 267.8371582 221.67651367 C267.84421783 222.93269501 267.85127747 224.18887634 267.85855103 225.48312378 C267.87613566 229.53330563 267.88324416 233.58333276 267.8840332 237.63354492 C267.88447506 238.66761538 267.88447506 238.66761538 267.88492584 239.72257614 C267.88633568 260.11495754 267.67021945 280.23230497 264.6340332 300.44604492 C264.43813549 301.80891666 264.24284919 303.17187639 264.0480957 304.53491211 C253.51157557 377.38921257 229.40687816 446.88138782 203.70892334 515.57281494 C201.99532317 520.15334573 200.28540667 524.73525067 198.57543945 529.31713867 C198.24789169 530.19475357 197.92034393 531.07236847 197.58287048 531.97657776 C155.36319794 627.88819734 155.36319794 627.88819734 158.89086914 727.93847656 C164.88825337 740.51173286 173.74775825 748.83261052 186.5090332 754.19604492 C203.42671553 759.88038619 220.98821353 757.48868523 236.7590332 749.69604492 C246.61677314 744.64523902 255.0110989 738.28494766 263.48168945 731.16870117 C265.6340332 729.44604492 265.6340332 729.44604492 266.6340332 729.44604492 C266.38095208 738.30518894 263.68152405 746.23802554 260.7590332 754.50854492 C260.51449402 755.20924103 260.26995483 755.90993713 260.01800537 756.63186646 C244.81233874 800.09923559 222.29973539 841.97333587 190.8996582 875.96948242 C189.042008 878.00008626 187.24161831 880.06007166 185.4465332 882.14526367 C181.28198161 886.91524446 176.86257586 891.40948754 172.3840332 895.88354492 C171.54283936 896.72393311 170.70164551 897.56432129 169.83496094 898.43017578 C164.02252734 904.18546546 158.09082699 909.42520994 151.6340332 914.44604492 C149.75633772 916.04705566 147.88149275 917.65141365 146.0090332 919.25854492 C133.13937265 929.97220564 119.09493306 939.0443117 104.6340332 947.44604492 C103.80307129 947.93073242 102.97210937 948.41541992 102.1159668 948.91479492 C65.42274536 970.12299366 24.72345236 983.50607864 -17.3659668 988.44604492 C-18.11869873 988.54030762 -18.87143066 988.63457031 -19.64697266 988.73168945 C-78.93231659 995.21394026 -146.77563002 984.49553022 -194.3659668 946.44604492 C-198.01077346 943.39478882 -201.47970911 940.17266738 -204.89379883 936.86694336 C-206.3798103 935.43268353 -207.88556763 934.02146716 -209.39331055 932.61010742 C-235.75484755 907.54885832 -250.27484029 872.49021728 -257.1784668 837.32104492 C-257.37335693 836.33418701 -257.56824707 835.3473291 -257.76904297 834.33056641 C-261.04347489 816.49508639 -261.74421166 798.66494511 -261.6784668 780.57104492 C-261.67631165 779.49755798 -261.67415649 778.42407104 -261.67193604 777.3180542 C-261.61585848 759.8429267 -260.93180387 742.75614863 -258.3659668 725.44604492 C-258.2712207 724.79812988 -258.17647461 724.15021484 -258.07885742 723.48266602 C-246.6581186 645.79551618 -220.32294937 571.66785392 -194.9284668 497.69604492 C-190.58692777 485.04327518 -186.30980316 472.37120889 -182.15011597 459.65734863 C-181.60041 457.97813292 -181.04901439 456.29946903 -180.49563599 454.62145996 C-177.60992803 445.85968594 -174.91522636 437.0768201 -172.55737305 428.15698242 C-172.35007065 427.37287994 -172.14276825 426.58877747 -171.92918396 425.78091431 C-168.42191793 412.20335989 -166.54235669 396.24297104 -173.3659668 383.44604492 C-173.79006836 382.6494043 -174.21416992 381.85276367 -174.65112305 381.03198242 C-179.88214158 372.31847523 -188.50454498 365.92683475 -198.19799805 362.86791992 C-213.16685743 359.9550608 -225.99725941 365.32589192 -238.3581543 373.36791992 C-259.65730622 388.08369761 -275.45214697 407.65710419 -287.3659668 430.44604492 C-287.69516113 431.05818848 -288.02435547 431.67033203 -288.36352539 432.30102539 C-312.69606061 477.56945281 -324.63032148 530.66346045 -331.1784668 581.32104492 C-331.29037354 582.17964111 -331.40228027 583.0382373 -331.51757812 583.92285156 C-333.39521162 599.77091879 -333.5543793 615.81972663 -333.8659668 631.75854492 C-333.90693598 633.72029719 -333.94795332 635.68204846 -333.98901367 637.64379883 C-334.2391296 649.96815297 -334.42527315 662.29301749 -334.58457947 674.61881828 C-334.61586039 677.03548057 -334.64765486 679.45213563 -334.67956543 681.86878967 C-334.77437506 689.08265086 -334.86675569 696.29649669 -334.94676208 703.51053905 C-334.98105866 706.52339626 -335.01925187 709.53619572 -335.05834961 712.54899406 C-335.07584579 713.96850464 -335.09156904 715.38803823 -335.10546875 716.80758858 C-335.12469846 718.75597071 -335.15042163 720.70428558 -335.17651367 722.65258789 C-335.18904175 723.75214813 -335.20156982 724.85170837 -335.21447754 725.98458862 C-335.3659668 728.44604492 -335.3659668 728.44604492 -336.3659668 729.44604492 C-442.6259668 729.44604492 -548.8859668 729.44604492 -658.3659668 729.44604492 C-658.3659668 492.83604492 -658.3659668 256.22604492 -658.3659668 12.44604492 C-548.8059668 12.44604492 -439.2459668 12.44604492 -326.3659668 12.44604492 C-326.3659668 132.89604492 -326.3659668 253.34604492 -326.3659668 377.44604492 C-324.7159668 377.11604492 -323.0659668 376.78604492 -321.3659668 376.44604492 C-321.32210342 375.87897827 -321.27824005 375.31191162 -321.23304749 374.72766113 C-320.59264792 367.41989893 -319.31940934 360.29968079 -317.92456055 353.10229492 C-317.6814061 351.83193893 -317.43825165 350.56158295 -317.18772888 349.25273132 C-316.4007136 345.14898892 -315.60276892 341.04740899 -314.8034668 336.94604492 C-314.66770485 336.24779728 -314.5319429 335.54954964 -314.39206696 334.83014297 C-304.69907779 284.98223662 -292.41292307 237.83161189 -271.3659668 191.44604492 C-270.78395508 190.15802979 -270.78395508 190.15802979 -270.19018555 188.84399414 C-259.09145226 164.41599591 -246.04394613 140.53785621 -229.3659668 119.44604492 C-228.73561523 118.63522461 -228.10526367 117.8244043 -227.45581055 116.98901367 C-218.00671849 104.97877141 -207.94134505 93.68394262 -197.10205078 82.92138672 C-195.29375072 81.12388688 -193.49650702 79.31582176 -191.69995117 77.5065918 C-184.89729647 70.69574701 -177.95341424 64.38441964 -170.3659668 58.44604492 C-169.16146323 57.46987892 -167.95814386 56.49224786 -166.7565918 55.51245117 C-136.3553134 31.12809245 -101.32738236 15.33570834 -63.5534668 6.13354492 C-62.6135791 5.90328613 -61.67369141 5.67302734 -60.70532227 5.43579102 C-57.60229071 4.71342859 -54.4894268 4.07416756 -51.3659668 3.44604492 C-50.15368408 3.17606689 -48.94140137 2.90608887 -47.69238281 2.62792969 C-32.00926622 -0.55625156 -15.92764159 -0.04529978 0 0 Z " fill="#074F51" transform="translate(1917.365966796875,741.553955078125)"/>
</svg>
