<?xml version="1.0" encoding="UTF-8"?>
<svg version="1.1" xmlns="http://www.w3.org/2000/svg" width="3509" height="2482">
<path d="M0 0 C39.20118085 32.57753305 41.35361733 95.97369937 46.29702759 142.50891113 C46.71225886 146.38488384 47.14455812 150.25885134 47.578125 154.1328125 C47.72846191 153.28388428 47.87879883 152.43495605 48.03369141 151.56030273 C55.09852411 111.98282155 64.06299776 72.02579363 88.578125 39.1328125 C88.98820801 38.56626953 89.39829102 37.99972656 89.82080078 37.41601562 C111.61461021 7.41261402 141.56578594 -12.78092791 178.328125 -19.2421875 C210.86348018 -22.96380242 242.86082667 -16.68646779 269.19921875 3.37890625 C301.36523824 29.00583313 313.07069956 68.36860687 317.828125 107.8203125 C325.50150087 182.31309663 306.0091732 254.39113591 278.12620544 322.8583374 C276.22753562 327.52199054 274.35179986 332.19409168 272.49609375 336.875 C272.03138672 338.04579102 271.56667969 339.21658203 271.08789062 340.42285156 C270.22723212 342.59356707 269.36779306 344.76476659 268.50976562 346.93652344 C267.94612305 348.35239746 267.94612305 348.35239746 267.37109375 349.796875 C267.0464917 350.61623535 266.72188965 351.4355957 266.38745117 352.27978516 C265.578125 354.1328125 265.578125 354.1328125 264.578125 355.1328125 C262.43919233 355.22973313 260.29699533 355.25468053 258.15586853 355.25306702 C257.13778236 355.25434865 257.13778236 355.25434865 256.09912878 355.25565618 C253.80816574 355.25731291 251.51727474 355.2517865 249.22631836 355.24633789 C247.59072369 355.24605603 245.9551289 355.24621372 244.3195343 355.2467804 C239.86517914 355.24706843 235.41085066 355.24117074 230.95650172 355.23420644 C226.30666026 355.22797389 221.65681826 355.22736918 217.00697327 355.22618103 C208.19550798 355.22306742 199.38405503 355.21485363 190.57259518 355.20483154 C180.54374392 355.19367132 170.51489209 355.18816018 160.48603618 355.18313611 C139.85005889 355.17267104 119.21409272 355.15507103 98.578125 355.1328125 C98.87612985 352.62534127 99.17835284 350.1184934 99.48291016 347.61181641 C99.56553604 346.91290787 99.64816193 346.21399933 99.73329163 345.49391174 C100.64432995 338.04995711 102.20974459 330.80090899 103.953125 323.5078125 C104.12319061 322.78971405 104.29325623 322.0716156 104.46847534 321.33175659 C111.14268179 293.37026821 120.72060353 266.22401651 130.32641602 239.16040039 C133.31933182 230.71677692 136.23420661 222.26019842 138.9375 213.71875 C139.18474823 212.93844925 139.43199646 212.1581485 139.68673706 211.35420227 C143.20096833 200.1111154 145.92954095 189.28337242 140.578125 178.1328125 C138.3277053 175.21490725 138.3277053 175.21490725 135.578125 173.1328125 C134.876875 172.5346875 134.175625 171.9365625 133.453125 171.3203125 C127.79260772 168.98227276 122.31533068 169.2015982 116.546875 171.1640625 C95.72240904 180.82489723 84.1319915 201.24140513 76.44628906 221.90185547 C60.62234727 265.88425859 61.32636505 307.24544939 60.578125 355.1328125 C-8.061875 355.1328125 -76.701875 355.1328125 -147.421875 355.1328125 C-145.56501524 342.75374745 -143.73426002 330.82227581 -140.671875 318.7578125 C-140.39275772 317.64495377 -140.39275772 317.64495377 -140.10800171 316.50961304 C-133.69348473 291.13072582 -124.99071658 266.38891883 -116.484375 241.65234375 C-116.16691818 240.72792984 -115.84946136 239.80351593 -115.52238464 238.85108948 C-114.02326867 234.48933343 -112.51611566 230.13077593 -110.98950195 225.77856445 C-102.14201657 203.09460436 -102.14201657 203.09460436 -104.51171875 179.8828125 C-107.13655139 174.83592399 -110.02411654 171.9974927 -115.421875 170.1328125 C-124.32238771 168.69026587 -131.02965222 171.24257281 -138.421875 176.1328125 C-166.3277931 197.58811637 -175.44884363 235.19581096 -181.421875 268.1328125 C-184.74948566 296.97210488 -184.94602688 326.10607747 -185.421875 355.1328125 C-241.191875 355.1328125 -296.961875 355.1328125 -354.421875 355.1328125 C-354.421875 235.3428125 -354.421875 115.5528125 -354.421875 -7.8671875 C-299.311875 -7.8671875 -244.201875 -7.8671875 -187.421875 -7.8671875 C-187.421875 46.9128125 -187.421875 101.6928125 -187.421875 158.1328125 C-186.761875 158.1328125 -186.101875 158.1328125 -185.421875 158.1328125 C-185.39174316 157.44018311 -185.36161133 156.74755371 -185.33056641 156.03393555 C-184.68845714 145.18607611 -182.76106487 134.61898678 -180.796875 123.9453125 C-180.61891388 122.97126465 -180.44095276 121.9972168 -180.25759888 120.99365234 C-177.40567516 105.47077729 -174.16384924 90.20580816 -169.421875 75.1328125 C-169.14520996 74.24883789 -168.86854492 73.36486328 -168.58349609 72.45410156 C-158.15625488 39.75573231 -142.01240477 7.77145214 -110.421875 -8.8671875 C-75.28678913 -26.50075728 -31.43697267 -24.23689183 0 0 Z " fill="#FFFFFF" transform="translate(1586.421875,1095.8671875)"/>
<path d="M0 0 C1.13766312 -0.00101212 1.13766312 -0.00101212 2.29830933 -0.00204468 C38.03515544 0.04841178 71.73065086 10.10117193 98.75 34.25 C99.38035156 34.80945312 100.01070312 35.36890625 100.66015625 35.9453125 C121.5018051 55.6000793 132.1223955 85.05916941 133.03125 113.2109375 C134.05426485 168.15891224 116.03798345 220.12056955 96.5625 270.75 C76.10934165 317.33905855 76.10934165 317.33905855 76.75 366.25 C80.00316601 373.01413009 84.51155683 378.02526916 91.5 381.0625 C100.55302588 384.04588353 109.27176933 382.19996075 117.75 378.25 C120.7527142 376.3144925 123.5707022 374.26641047 126.375 372.0546875 C128.465005 370.4665587 130.39853401 369.37674412 132.75 368.25 C124.46832299 398.77853485 110.5694165 425.24927751 88.75 448.25 C88.28787109 448.74467773 87.82574219 449.23935547 87.34960938 449.74902344 C59.59974305 479.29917598 19.69333273 498.87033591 -21.07421875 500.46875 C-43.88791663 501.03564366 -66.8335608 497.82966047 -87.25 487.25 C-88.24644531 486.74855469 -89.24289062 486.24710938 -90.26953125 485.73046875 C-110.59193907 474.7835361 -123.8799735 455.62909457 -130.55639648 433.7878418 C-139.1014397 403.52957948 -135.56821015 371.83738425 -129.125 341.5625 C-128.8787085 340.38494141 -128.63241699 339.20738281 -128.37866211 337.99414062 C-121.86693165 308.80615296 -111.3770796 280.5070264 -101.66308594 252.27441406 C-100.26492131 248.20908312 -98.87464451 244.14111828 -97.4887352 240.07159424 C-96.72217716 237.82860732 -95.9466368 235.5888717 -95.17068481 233.34912109 C-88.66915209 215.16591839 -88.66915209 215.16591839 -89.25 196.25 C-91.86441584 191.02116832 -95.97945061 186.88527469 -101.25 184.25 C-112.51873045 183.00188112 -119.53036643 186.29054215 -128.375 192.9375 C-155.36047375 215.57999906 -164.26386706 257.32641341 -169 290.5 C-169.11577393 291.30131348 -169.23154785 292.10262695 -169.35083008 292.92822266 C-172.60789492 317.90978617 -171.744059 344.45889078 -172.25 369.25 C-226.04 369.25 -279.83 369.25 -335.25 369.25 C-335.25 249.46 -335.25 129.67 -335.25 6.25 C-279.81 6.25 -224.37 6.25 -167.25 6.25 C-167.25 67.3 -167.25 128.35 -167.25 191.25 C-166.59 191.25 -165.93 191.25 -165.25 191.25 C-165.12044922 190.18652344 -165.12044922 190.18652344 -164.98828125 189.1015625 C-157.45029631 131.97885097 -138.62005105 68.43468171 -91.25 31.25 C-90.49541504 30.65155273 -90.49541504 30.65155273 -89.72558594 30.04101562 C-63.36774389 9.32372153 -33.35171415 0.02659447 0 0 Z " fill="#FFFFFF" transform="translate(867.25,1081.75)"/>
<path d="M0 0 C55.44 0 110.88 0 168 0 C168 105.93 168 211.86 168 321 C168.99 320.67 169.98 320.34 171 320 C171.17221069 318.97737061 171.17221069 318.97737061 171.34790039 317.93408203 C178.35719131 276.891893 189.90218856 235.90015147 218 204 C218.76441406 203.12601563 219.52882813 202.25203125 220.31640625 201.3515625 C243.34985095 175.39509182 273.90689097 157.83211213 309 155 C337.93281409 153.85517642 366.8271448 155.89874432 389.25 176.375 C391.19722996 178.22234808 393.09878741 180.10420397 395 182 C395.71929688 182.69609375 396.43859375 183.3921875 397.1796875 184.109375 C418.34358331 206.0382309 424.8007208 238.86884696 428 268 C428.09571289 268.79003418 428.19142578 269.58006836 428.29003906 270.39404297 C429.322289 279.89703205 429.24377969 289.45246357 429.25 299 C429.25067474 299.93174042 429.25134949 300.86348083 429.25204468 301.82345581 C429.21884189 330.7840434 426.65120305 360.80432197 416 388 C415.5361792 389.2065625 415.5361792 389.2065625 415.06298828 390.4375 C405.0192843 416.3936756 392.62232676 441.0498824 374 462 C373.175 462.95648437 372.35 463.91296875 371.5 464.8984375 C327.05803537 515.63190976 252.09974273 533.25067121 187.49072266 537.83691406 C179.33021079 538.37124281 171.17515962 538.77491463 163 539 C162.1548584 539.02336426 161.3097168 539.04672852 160.43896484 539.07080078 C108.33203358 540.27179339 49.6314745 534.54382483 0 518 C0 347.06 0 176.12 0 0 Z M199.75 337.8125 C179.81929034 359.03951598 172.11680751 388.78116211 169 417 C192.60917673 411.29778359 215.3517683 400.85846573 233 384 C233.61488281 383.45988281 234.22976562 382.91976562 234.86328125 382.36328125 C246.08772576 372.11936292 252.43105553 358.43941534 253.18359375 343.30859375 C252.81045652 336.58418443 250.08260457 331.63443262 245.1875 327.0625 C231.04012017 315.68136763 211.01646162 327.12767215 199.75 337.8125 Z " fill="#FFFFFF" transform="translate(1936,933)"/>
<path d="M0 0 C14.91041714 14.08243562 24.99936575 34.45566325 26.30200195 55.0480957 C26.93954331 84.98713965 20.73717238 107.2199964 -0.08984375 129.5234375 C-40.87343525 169.44902918 -105.84006091 178.62726585 -159.875 186.25 C-158.64121419 187.52130533 -157.40181111 188.7871603 -156.16015625 190.05078125 C-155.47058838 190.75630127 -154.78102051 191.46182129 -154.07055664 192.1887207 C-138.32329194 206.97290349 -114.46203953 207.86043621 -94.16796875 207.5546875 C-57.6176322 206.39648645 -20.69029908 191.92898211 13.0234375 178.53515625 C13.79558594 178.2309375 14.56773437 177.92671875 15.36328125 177.61328125 C16.02368408 177.34813721 16.68408691 177.08299316 17.36450195 176.80981445 C19.125 176.25 19.125 176.25 22.125 176.25 C22.96469058 207.60921362 10.74440436 239.73320253 -6.875 265.25 C-7.62007812 266.3328125 -8.36515625 267.415625 -9.1328125 268.53125 C-19.95795073 283.35618507 -33.48354092 296.26560689 -48.875 306.25 C-49.5237207 306.6732959 -50.17244141 307.0965918 -50.84082031 307.53271484 C-80.74959143 326.74318099 -116.81425863 336.37411683 -151.875 340.25 C-152.68227539 340.3442627 -153.48955078 340.43852539 -154.32128906 340.53564453 C-202.09802967 345.56524867 -254.00244214 339.35491033 -292.625 308.875 C-326.52754319 279.90281167 -345.58272681 237.59605988 -350.6940918 193.61328125 C-353.72689499 153.99447566 -345.52498966 116.2335503 -326.875 81.25 C-326.56481934 80.65767578 -326.25463867 80.06535156 -325.93505859 79.45507812 C-313.74864494 56.33246989 -295.44603862 35.243851 -274.875 19.25 C-274.33133789 18.82460937 -273.78767578 18.39921875 -273.22753906 17.9609375 C-206.3163025 -34.01780845 -85.47708432 -56.41234671 0 0 Z M-164.5625 91.8125 C-175.25785086 104.81566439 -178.73026946 122.8407604 -177.875 139.25 C-177.34885093 143.28075936 -176.66666941 147.26337904 -175.875 151.25 C-170.56028182 150.70683993 -166.07515666 149.37802292 -161.1875 147.1875 C-160.14311768 146.722229 -160.14311768 146.722229 -159.07763672 146.24755859 C-143.46953933 139.07549641 -129.05962584 128.2807955 -122.55859375 111.94140625 C-120.02961443 104.31922118 -118.12676894 97.68770298 -121.5 90.0625 C-124.26216518 85.11199973 -127.62987318 82.23224298 -132.875 79.9375 C-145.00878127 77.15684179 -156.2767777 83.19970971 -164.5625 91.8125 Z " fill="#FFFFFF" transform="translate(2949.875,1120.75)"/>
<path d="M0 0 C55.44 0 110.88 0 168 0 C168 170.94 168 341.88 168 518 C112.56 518 57.12 518 0 518 C0 347.06 0 176.12 0 0 Z " fill="#FFFFFF" transform="translate(2397,933)"/>
<path d="M0 0 C55.44 0 110.88 0 168 0 C168 119.79 168 239.58 168 363 C112.56 363 57.12 363 0 363 C0 243.21 0 123.42 0 0 Z " fill="#FFFFFF" transform="translate(1030,1088)"/>
<path d="M0 0 C16.32102282 13.95632917 26.59815505 33.09151567 28.3125 54.6875 C29.22085318 72.71904307 27.84154445 89.03299481 20.3125 105.6875 C19.89355469 106.62078125 19.47460938 107.5540625 19.04296875 108.515625 C9.81943616 127.12217489 -7.88509868 139.90440217 -27.0703125 146.64453125 C-36.52651994 149.3711051 -45.40707647 150.07551154 -55.25 150.0625 C-56.24287018 150.06218277 -56.24287018 150.06218277 -57.25579834 150.06185913 C-67.90018128 150.02794549 -77.59781837 149.14131919 -87.6875 145.6875 C-88.76386719 145.32527344 -89.84023437 144.96304687 -90.94921875 144.58984375 C-107.95880634 138.16496752 -122.08449197 125.64469231 -130.6875 109.6875 C-131.14640625 108.83929687 -131.6053125 107.99109375 -132.078125 107.1171875 C-142.77375782 85.53262729 -143.50005634 58.87718069 -136.5859375 36.05078125 C-128.98805457 15.34042295 -115.87577318 -0.8526944 -95.6875 -10.3125 C-65.13270826 -24.3501072 -26.57131652 -21.01582806 0 0 Z M-45.03125 51.93359375 C-45.68581177 52.58957047 -46.34037354 53.24554718 -47.01477051 53.92140198 C-49.07473823 55.98690145 -51.13117366 58.05587595 -53.1875 60.125 C-54.5961205 61.53864434 -56.00497267 62.95205786 -57.4140625 64.36523438 C-60.84122133 67.80333149 -64.26522019 71.24454656 -67.6875 74.6875 C-68.81447319 73.73316721 -69.9398109 72.77690285 -71.06445312 71.81982422 C-72.00472351 71.02135574 -72.00472351 71.02135574 -72.96398926 70.20675659 C-74.86556992 68.53053323 -76.52360133 66.72258776 -78.1875 64.8125 C-80.81817757 62.14635262 -81.49928028 61.72259181 -85.375 61 C-89.19764691 61.79337955 -90.45716921 62.51356772 -92.6875 65.6875 C-93.85727494 68.03622531 -93.85727494 68.03622531 -93.6875 70.6875 C-90.45702662 76.38983956 -85.95344693 80.85823833 -81.375 85.5 C-80.64087891 86.27537109 -79.90675781 87.05074219 -79.15039062 87.84960938 C-75.93371296 91.11195416 -73.41600216 93.3895129 -69.14453125 95.13671875 C-65.38260637 94.64788105 -64.74202341 94.1710154 -62.0534668 91.72216797 C-61.35070114 91.08355331 -60.64793549 90.44493866 -59.9238739 89.78697205 C-53.31193554 83.57979008 -46.86260232 77.20996474 -40.42138672 70.82641602 C-38.59064275 69.01741601 -36.75365275 67.2147165 -34.91064453 65.41821289 C-32.23840744 62.81262755 -29.58616078 60.18811544 -26.9375 57.55859375 C-26.10951904 56.75844345 -25.28153809 55.95829315 -24.4284668 55.13389587 C-23.29598511 53.99725243 -23.29598511 53.99725243 -22.140625 52.83764648 C-21.47192383 52.17925278 -20.80322266 51.52085907 -20.11425781 50.84251404 C-18.20163089 47.95363001 -18.2817362 46.08635791 -18.6875 42.6875 C-21.06116458 39.47607145 -22.62192268 37.97165395 -26.5 36.9375 C-33.87158882 38.67199149 -39.80748429 46.66598297 -45.03125 51.93359375 Z " fill="#FFFFFF" transform="translate(1170.6875,918.3125)"/>
</svg>
