<?xml version="1.0" encoding="UTF-8"?>
<svg version="1.1" xmlns="http://www.w3.org/2000/svg" width="3509" height="2482">
<path d="M0 0 C1.39458334 -0.00391187 2.78916554 -0.00825135 4.18374634 -0.01298523 C7.08624145 -0.02036791 9.98861483 -0.02021779 12.89111328 -0.01489258 C15.80533386 -0.01028658 18.71913458 -0.01709656 21.63330078 -0.03540039 C95.79632536 -0.49667347 166.46650597 21.85152324 220.2265625 74.36328125 C225.14238118 79.40719944 229.60311514 84.73456635 233.9140625 90.30078125 C234.3486377 90.85894531 234.78321289 91.41710937 235.23095703 91.9921875 C241.94811452 100.6779613 247.74389848 109.61366548 252.86865234 119.32421875 C253.8726179 121.22242173 254.90193211 123.10503349 255.93359375 124.98828125 C296.24196479 200.23849494 282.01489426 292.76369222 251.70956421 412.72520447 C237.03068283 461.01527763 218.69976245 508.07295796 200.66357422 555.1796875 C164.79717801 640.52660995 164.79717801 640.52660995 170.68359375 728.9921875 C177.04897995 740.93486447 186.37121822 750.75034644 199.203125 755.48828125 C218.30816317 761.21428693 236.63220318 757.28829117 253.9140625 748.30078125 C261.03324208 744.40453417 266.90767617 739.77321607 272.72265625 734.12109375 C274.88829487 732.32218538 276.16543851 731.6889696 278.9140625 731.30078125 C278.32654338 736.19209253 277.3183752 740.64145696 275.796875 745.32421875 C275.47801331 746.30607651 275.47801331 746.30607651 275.15270996 747.30776978 C274.45721646 749.4335605 273.75005573 751.5551268 273.0390625 753.67578125 C272.79452332 754.40764648 272.54998413 755.13951172 272.29803467 755.89355469 C258.58074407 796.72435278 237.71501892 835.31894776 209.9140625 868.30078125 C209.14964844 869.25082031 208.38523437 870.20085938 207.59765625 871.1796875 C200.54180293 879.82708668 192.71864813 887.71266264 184.8515625 895.61328125 C184.29711456 896.17290558 183.74266663 896.73252991 183.17141724 897.30911255 C176.08978042 904.44276545 168.8468075 911.10238311 160.9140625 917.30078125 C160.18501709 917.87852295 159.45597168 918.45626465 158.70483398 919.05151367 C143.86259607 930.74662622 128.37796332 941.0355392 111.9140625 950.30078125 C111.1823584 950.71328125 110.4506543 951.12578125 109.69677734 951.55078125 C70.15737365 973.61768194 22.98110353 989.28489047 -22.6484375 989.50390625 C-23.62969604 989.51092056 -24.61095459 989.51793488 -25.62194824 989.52516174 C-28.77665844 989.54258859 -31.93118091 989.5490153 -35.0859375 989.55078125 C-36.70230103 989.55179337 -36.70230103 989.55179337 -38.35131836 989.55282593 C-54.45630569 989.53679048 -70.19075806 989.13499672 -86.0859375 986.30078125 C-87.09897949 986.12385742 -88.11202148 985.94693359 -89.15576172 985.76464844 C-102.79236209 983.31298205 -116.04554248 979.98772448 -129.0859375 975.30078125 C-129.9001416 975.0083252 -130.7143457 974.71586914 -131.55322266 974.41455078 C-171.85777632 959.66822077 -205.08602452 932.49205327 -225.0859375 894.30078125 C-225.4454248 893.61983398 -225.80491211 892.93888672 -226.17529297 892.23730469 C-244.28100373 857.43977815 -249.52294805 819.16937021 -249.3984375 780.42578125 C-249.39570328 778.66415649 -249.39570328 778.66415649 -249.39291382 776.86694336 C-249.34747873 759.48735517 -248.83268399 742.49227826 -246.0859375 725.30078125 C-245.91964844 724.19750488 -245.75335937 723.09422852 -245.58203125 721.95751953 C-237.12295912 666.3704502 -221.16487256 612.67546942 -203.18011475 559.53649902 C-201.93025062 555.84038161 -200.68290163 552.14341846 -199.43603516 548.44628906 C-180.44150656 492.12690892 -180.44150656 492.12690892 -173.59765625 472.1953125 C-173.27104004 471.2433046 -172.94442383 470.29129669 -172.60791016 469.31044006 C-171.17190472 465.12669879 -169.73205012 460.94437331 -168.28369141 456.76489258 C-161.59504534 437.68719331 -161.59504534 437.68719331 -157.2734375 417.98828125 C-157.15726074 417.24175293 -157.04108398 416.49522461 -156.92138672 415.72607422 C-154.93982371 402.18782561 -155.61871325 389.37622525 -163.30078125 377.6171875 C-169.69806741 369.31611377 -177.91878313 363.72360721 -188.25390625 361.671875 C-204.76004477 359.79841842 -219.49480757 367.29074156 -232.359375 377.0625 C-237.46912328 381.25717875 -242.33147403 385.70770853 -247.0859375 390.30078125 C-247.65223877 390.84444336 -248.21854004 391.38810547 -248.80200195 391.94824219 C-294.53993656 436.64312953 -310.30312743 514.14880869 -318.3359375 575.05078125 C-318.48691895 576.18265869 -318.63790039 577.31453613 -318.79345703 578.48071289 C-325.02982389 628.7618601 -322.64002315 679.91245988 -323.0859375 730.30078125 C-429.6759375 730.30078125 -536.2659375 730.30078125 -646.0859375 730.30078125 C-646.0859375 493.36078125 -646.0859375 256.42078125 -646.0859375 12.30078125 C-536.5259375 12.30078125 -426.9659375 12.30078125 -314.0859375 12.30078125 C-314.0859375 132.75078125 -314.0859375 253.20078125 -314.0859375 377.30078125 C-312.4359375 377.30078125 -310.7859375 377.30078125 -309.0859375 377.30078125 C-308.9408374 376.3684668 -308.7957373 375.43615234 -308.64624023 374.47558594 C-294.57330562 284.4222769 -272.89428259 195.54330621 -208.0859375 108.30078125 C-207.61349609 107.70974609 -207.14105469 107.11871094 -206.65429688 106.50976562 C-199.17201753 97.26941225 -190.83562258 88.84788532 -182.4609375 80.42578125 C-181.93181763 79.89130371 -181.40269775 79.35682617 -180.85754395 78.80615234 C-173.93726093 71.83278076 -166.81079422 65.39264027 -159.0859375 59.30078125 C-157.90470331 58.33652705 -156.72477504 57.370668 -155.546875 56.40234375 C-112.26772133 21.66945334 -55.72712467 -0.0396945 0 0 Z " fill="#FFFFFF" transform="translate(1905.0859375,741.69921875)"/>
</svg>
