<?xml version="1.0" encoding="UTF-8"?>
<svg version="1.1" xmlns="http://www.w3.org/2000/svg" width="3509" height="2481">
<path d="M0 0 C3.06252023 2.68636286 5.93889516 5.52717697 8.8046875 8.421875 C9.89910156 9.48341797 9.89910156 9.48341797 11.015625 10.56640625 C43.20926412 43.84164985 44.95329305 101.77509483 49.52359009 144.79797363 C49.93882136 148.67394634 50.37112062 152.54791384 50.8046875 156.421875 C50.98008057 155.42671875 51.15547363 154.4315625 51.33618164 153.40625 C54.82155985 133.76018586 58.43704349 114.37974079 64.8046875 95.421875 C65.04509766 94.69387695 65.28550781 93.96587891 65.53320312 93.21582031 C79.23267068 52.36825296 105.91994214 15.03856964 144.7421875 -4.828125 C173.8575345 -19.22088873 207.99795978 -21.90574126 238.9296875 -11.953125 C268.34230114 -1.81626634 290.86813083 18.84994663 304.640625 46.63671875 C312.76119819 63.99983451 316.8483576 82.58245519 319.8046875 101.421875 C319.93069336 102.21158691 320.05669922 103.00129883 320.18652344 103.81494141 C323.5978093 126.18062722 323.66244133 149.91571004 321.8046875 172.421875 C321.72766602 173.37143066 321.65064453 174.32098633 321.57128906 175.29931641 C319.38678687 200.50352563 314.36332615 225.53557406 307.9296875 249.984375 C307.6510083 251.04946289 307.3723291 252.11455078 307.08520508 253.21191406 C300.8355949 276.02120657 292.40433562 298.04483366 283.4921875 319.921875 C282.02245151 323.5495663 280.55506616 327.17819417 279.08930969 330.80749512 C278.18941956 333.03364097 277.28694453 335.25874456 276.38127136 337.48254395 C275.97016617 338.49570679 275.55906097 339.50886963 275.13549805 340.55273438 C274.7806987 341.42393921 274.42589935 342.29514404 274.06034851 343.19274902 C272.2278732 347.90524196 270.53262219 352.6700546 268.8046875 357.421875 C213.6946875 357.421875 158.5846875 357.421875 101.8046875 357.421875 C106.09628521 314.50589788 122.73194641 273.12491089 136.46913147 232.54981995 C137.49680099 229.51106702 138.52033268 226.47093071 139.5430603 223.43051147 C140.21740699 221.43278626 140.89900412 219.4376487 141.58129883 217.44262695 C145.73295307 205.12397481 149.73510388 192.82830607 143.8046875 180.421875 C140.21451646 175.95841911 136.34263495 173.05478152 130.62109375 172.03125 C121.01815393 171.35520304 113.29271471 176.08246684 106.14697266 182.11669922 C85.29885371 200.75556969 76.79710641 229.0374408 70.4921875 255.359375 C70.26192871 256.2963623 70.03166992 257.23334961 69.79443359 258.19873047 C62.41074039 290.79424184 64.32320934 324.2364771 63.8046875 357.421875 C-4.8353125 357.421875 -73.4753125 357.421875 -144.1953125 357.421875 C-139.47032389 329.07194337 -139.47032389 329.07194337 -136.7578125 318.421875 C-136.59435333 317.77433258 -136.43089417 317.12679016 -136.26248169 316.45962524 C-129.05469857 288.09840926 -119.00836944 260.45808805 -109.22045898 232.90893555 C-98.88379104 207.1506564 -98.88379104 207.1506564 -101.74609375 180.6953125 C-104.38150053 176.56106252 -107.67677055 174.23495766 -112.1953125 172.421875 C-120.54574926 170.74655227 -126.99978318 173.75909636 -133.921875 178.15234375 C-160.98540482 196.82841598 -171.06590358 233.14894127 -177.0703125 263.796875 C-177.26133545 264.76818359 -177.4523584 265.73949219 -177.64916992 266.74023438 C-183.10741567 296.70241423 -181.69736646 327.04716679 -182.1953125 357.421875 C-237.9653125 357.421875 -293.7353125 357.421875 -351.1953125 357.421875 C-351.1953125 237.961875 -351.1953125 118.501875 -351.1953125 -4.578125 C-296.0853125 -4.578125 -240.9753125 -4.578125 -184.1953125 -4.578125 C-184.1953125 50.201875 -184.1953125 104.981875 -184.1953125 161.421875 C-183.5353125 161.421875 -182.8753125 161.421875 -182.1953125 161.421875 C-182.15937988 160.6273291 -182.12344727 159.8327832 -182.08642578 159.01416016 C-181.50179172 148.77796123 -179.91861847 138.86947284 -178.0703125 128.796875 C-177.9156955 127.94593262 -177.76107849 127.09499023 -177.60177612 126.21826172 C-170.81579597 89.04927208 -161.82145172 48.25968504 -137.1953125 18.421875 C-136.40769531 17.45507812 -135.62007812 16.48828125 -134.80859375 15.4921875 C-103.80603266 -20.55265809 -38.23328058 -31.94291209 0 0 Z " fill="#A4EC8A" transform="translate(1583.1953125,1092.578125)"/>
<path d="M0 0 C20.77714949 18.40092305 33.63494413 45.76314801 35.79248047 73.4074707 C38.45306906 131.54711523 19.43244162 186.02895109 -0.95751953 239.5949707 C-20.94942891 285.353579 -20.94942891 285.353579 -20.20751953 333.4074707 C-16.64917029 340.85569241 -13.10611263 345.07480732 -5.58251953 348.6574707 C4.88943311 350.98457129 14.09815975 349.24746449 23.33935547 343.9465332 C27.21187707 341.45343923 30.72357494 338.87666826 33.79248047 335.4074707 C34.45248047 335.7374707 35.11248047 336.0674707 35.79248047 336.4074707 C27.28896601 364.02766462 16.011851 388.5441656 -3.20751953 410.4074707 C-4.03123047 411.35235352 -4.85494141 412.29723633 -5.70361328 413.27075195 C-10.56504383 418.73893639 -15.5097922 423.81735761 -21.20751953 428.4074707 C-22.13951172 429.16543945 -23.07150391 429.9234082 -24.03173828 430.7043457 C-57.88416798 457.75328348 -99.35804912 471.4350522 -142.75830078 466.91137695 C-169.41169557 463.52613051 -194.74239955 453.46386332 -212.07470703 432.10668945 C-233.34678835 403.22393015 -235.2831521 366.06042111 -230.23876953 331.7121582 C-227.59717326 315.08163248 -224.06972807 298.71916158 -219.36767578 282.55200195 C-219.18113371 281.90892845 -218.99459164 281.26585495 -218.80239677 280.60329437 C-212.9915797 260.66567518 -206.08393623 241.07545138 -199.33642578 221.4407959 C-197.5024132 216.10246661 -195.67479311 210.76203333 -193.8557415 205.41858673 C-193.0166871 202.96214206 -192.16851308 200.50898168 -191.31983948 198.05584717 C-185.03376073 179.88149299 -185.03376073 179.88149299 -187.33251953 161.1574707 C-190.37013216 156.70230552 -194.04715965 153.12759066 -199.20751953 151.4074707 C-207.74319701 150.12792892 -214.08596813 152.82597066 -221.20751953 157.4074707 C-224.79238391 160.18433427 -228.02529503 163.18081724 -231.20751953 166.4074707 C-231.83271484 167.02235352 -232.45791016 167.63723633 -233.10205078 168.27075195 C-250.96196063 187.09824157 -258.01171803 216.77071194 -263.20751953 241.4074707 C-263.36349609 242.14368652 -263.51947266 242.87990234 -263.68017578 243.63842773 C-269.88889468 273.94788316 -268.58433406 305.87138274 -269.20751953 336.4074707 C-322.99751953 336.4074707 -376.78751953 336.4074707 -432.20751953 336.4074707 C-432.20751953 216.9474707 -432.20751953 97.4874707 -432.20751953 -25.5925293 C-376.76751953 -25.5925293 -321.32751953 -25.5925293 -264.20751953 -25.5925293 C-264.20751953 35.1274707 -264.20751953 95.8474707 -264.20751953 158.4074707 C-263.54751953 158.4074707 -262.88751953 158.4074707 -262.20751953 158.4074707 C-262.08747559 157.63483887 -261.96743164 156.86220703 -261.84375 156.06616211 C-253.67118152 103.99390781 -240.46976193 51.85818654 -202.7265625 12.9777832 C-201.23664529 11.43757949 -199.77025061 9.8775256 -198.30517578 8.3137207 C-147.78927525 -44.81565834 -55.21788593 -47.16220444 0 0 Z " fill="#A4EC8A" transform="translate(964.20751953125,1113.592529296875)"/>
<path d="M0 0 C55.44 0 110.88 0 168 0 C168 105.93 168 211.86 168 321 C168.99 320.67 169.98 320.34 171 320 C171.22550537 318.75633667 171.22550537 318.75633667 171.45556641 317.48754883 C178.41461365 279.4547513 188.09515046 240.70128001 213 210 C213.74419189 209.08081787 213.74419189 209.08081787 214.50341797 208.14306641 C238.67301891 178.64707757 269.95940871 159.24219575 308.43847656 155.20068359 C337.62809718 152.91381091 365.59144895 156.71653184 388.69140625 175.97265625 C413.16972936 197.46884863 422.05537175 227.87996209 427 259 C427.13422363 259.84240234 427.26844727 260.68480469 427.40673828 261.55273438 C431.5647996 289.55385614 430.40515995 320.12981721 426 348 C425.83902832 349.07169434 425.67805664 350.14338867 425.51220703 351.24755859 C419.81557162 388.17992401 403.83796123 426.00338748 380 455 C379.57509277 455.52352051 379.15018555 456.04704102 378.71240234 456.58642578 C335.88895338 509.21041938 267.38606821 529.86629155 201.97314453 536.70751953 C136.42785119 543.1554799 62.9938145 538.99793817 0 518 C0 347.06 0 176.12 0 0 Z M193 346 C179.70304945 365.12850542 169 393.28930391 169 417 C190.49815866 412.68736535 211.02802504 402.81130983 228 389 C228.94166016 388.30390625 228.94166016 388.30390625 229.90234375 387.59375 C241.8281803 378.38981026 250.31409577 364.22060901 252.78125 349.44140625 C253.45296364 341.94460227 252.43438709 336.11226328 248 330 C243.4979676 325.46175822 239.18759306 322.7162226 232.75 322.4375 C216.68971594 322.71270683 202.39236529 333.78062575 193 346 Z " fill="#A4EC8A" transform="translate(1936,932)"/>
<path d="M0 0 C1.01823853 0.00215515 2.03647705 0.0043103 3.08557129 0.00653076 C17.70410265 0.05621458 32.01117988 0.34961827 46.375 3.3125 C47.42478027 3.52181152 48.47456055 3.73112305 49.55615234 3.94677734 C72.22376719 8.55597864 94.49491001 14.94624445 112.375 30.3125 C113.03628906 30.83070312 113.69757812 31.34890625 114.37890625 31.8828125 C130.13833661 44.65072673 138.45387516 64.65301081 141.375 84.3125 C142.77044269 106.37204293 140.3562136 124.14162174 129.375 143.3125 C128.89160156 144.16328125 128.40820312 145.0140625 127.91015625 145.890625 C117.52066425 162.63427008 101.4471083 174.32782859 84.27294922 183.31445312 C82.54576426 184.22270269 80.83621602 185.16429378 79.12890625 186.109375 C41.97843774 205.93508402 -2.39101708 212.49560273 -43.625 218.3125 C-40.00664158 226.1961945 -30.54300235 231.01619332 -22.7578125 234.21484375 C26.57067809 251.49826751 82.20767953 228.7809498 128.34399414 210.95361328 C129.25012451 210.60411621 130.15625488 210.25461914 131.08984375 209.89453125 C131.87480225 209.58749268 132.65976074 209.2804541 133.46850586 208.96411133 C135.375 208.3125 135.375 208.3125 137.375 208.3125 C138.10847549 249.22413285 118.72485391 289.33862192 91.0859375 318.640625 C86.77602984 322.88843025 82.17286076 326.63369336 77.375 330.3125 C75.99054687 331.42044922 75.99054687 331.42044922 74.578125 332.55078125 C66.65447109 338.75050505 58.26874415 343.66952295 49.375 348.3125 C48.21613281 348.91964844 47.05726563 349.52679687 45.86328125 350.15234375 C21.02220461 362.41988552 -7.20424266 369.14431837 -34.625 372.3125 C-35.39150879 372.4067627 -36.15801758 372.50102539 -36.94775391 372.59814453 C-46.35206658 373.61635309 -55.80180845 373.55620057 -65.25 373.5625 C-66.15962494 373.56317474 -67.06924988 373.56384949 -68.00643921 373.56454468 C-113.06699934 373.51156895 -155.50234152 363.39406889 -188.4375 331 C-213.31494706 305.73848234 -227.26473387 271.78443965 -233.625 237.3125 C-233.80305176 236.35585449 -233.98110352 235.39920898 -234.16455078 234.41357422 C-235.60668711 225.98113635 -236.01206915 217.73455462 -236 209.1875 C-235.99912384 208.49785156 -235.99824768 207.80820313 -235.99734497 207.09765625 C-235.76852263 151.86358549 -212.28654622 103.03871746 -174.23291016 63.90039062 C-170.30843784 60.02478056 -165.98435892 56.67693016 -161.625 53.3125 C-160.82835938 52.64992188 -160.03171875 51.98734375 -159.2109375 51.3046875 C-152.41242645 45.65771578 -145.16990625 40.88088893 -137.625 36.3125 C-136.97063965 35.91272949 -136.3162793 35.51295898 -135.64208984 35.10107422 C-95.41659212 10.80761251 -46.6398961 -0.17757993 0 0 Z M-47.265625 121.765625 C-58.78763888 133.7727763 -62.89457833 152.01520802 -62.79296875 168.08984375 C-62.52434522 173.24366731 -61.62896676 178.25681027 -60.625 183.3125 C-54.17544163 182.83448256 -49.23654881 181.18766614 -43.4375 178.375 C-42.60887451 177.97603516 -41.78024902 177.57707031 -40.92651367 177.16601562 C-24.70068152 169.08060629 -11.96547966 157.4096252 -5.8125 140.015625 C-3.99360454 133.49791628 -3.91310414 127.48061977 -6.53125 121.23828125 C-8.99028198 116.90862851 -12.29178329 114.26112617 -16.8828125 112.39453125 C-28.35012836 109.35255839 -38.7700152 114.24094204 -47.265625 121.765625 Z " fill="#A4EC8A" transform="translate(2834.625,1087.6875)"/>
<path d="M0 0 C55.44 0 110.88 0 168 0 C168 170.94 168 341.88 168 518 C112.56 518 57.12 518 0 518 C0 347.06 0 176.12 0 0 Z " fill="#A4EC8A" transform="translate(2397,932)"/>
<path d="M0 0 C55.44 0 110.88 0 168 0 C168 119.46 168 238.92 168 362 C112.56 362 57.12 362 0 362 C0 242.54 0 123.08 0 0 Z " fill="#A4EC8A" transform="translate(1030,1088)"/>
<path d="M0 0 C24.95612876 -0.56870535 47.90943719 6.84594515 66.2890625 24.12109375 C83.19518839 42.46292184 89.16680461 65.27083445 88.57421875 89.73828125 C87.6341872 112.0079827 78.90337255 132.97550799 62.79296875 148.53125 C48.30586656 161.08099826 29.55322038 168.66164194 10.2890625 169.12109375 C9.39832031 169.15976563 8.50757813 169.1984375 7.58984375 169.23828125 C-17.0271894 169.82987884 -40.19136504 162.78674393 -58.24902344 145.59033203 C-71.56876617 132.20385712 -80.01385872 112.00031065 -80.7109375 93.12109375 C-80.7625 91.89132812 -80.8140625 90.6615625 -80.8671875 89.39453125 C-81.54741929 65.2194887 -74.99288908 41.53974223 -58.14550781 23.56445312 C-42.59414092 7.91780897 -21.69686972 0.96916853 0 0 Z M26.046875 59.8125 C25.29019531 60.59302734 24.53351563 61.37355469 23.75390625 62.17773438 C22.59568359 63.41813477 22.59568359 63.41813477 21.4140625 64.68359375 C19.87747902 66.29143532 18.33843773 67.8969318 16.796875 69.5 C15.66717285 70.67864624 15.66717285 70.67864624 14.51464844 71.88110352 C11.84646031 74.56656053 9.03569101 77.03015092 6.15966797 79.48852539 C3.23246333 82.04323923 0.51241748 84.7900811 -2.2109375 87.55859375 C-2.7471875 88.09935547 -3.2834375 88.64011719 -3.8359375 89.19726562 C-5.12997786 90.50285992 -6.42081924 91.81162371 -7.7109375 93.12109375 C-9.1959375 91.85265625 -9.1959375 91.85265625 -10.7109375 90.55859375 C-11.34902344 90.01847656 -11.98710938 89.47835937 -12.64453125 88.921875 C-14.04244433 87.70365585 -15.40954304 86.44930608 -16.74609375 85.1640625 C-20.78896174 81.28983352 -20.78896174 81.28983352 -25.9609375 79.43359375 C-29.38589015 80.28983191 -30.63599639 81.27765593 -32.7109375 84.12109375 C-33.79118408 86.52219592 -33.79118408 86.52219592 -33.7109375 89.12109375 C-31.7970767 92.81500008 -29.4898652 95.58927666 -26.55078125 98.51171875 C-25.75736328 99.30320312 -24.96394531 100.0946875 -24.14648438 100.91015625 C-22.90995117 102.12832031 -22.90995117 102.12832031 -21.6484375 103.37109375 C-20.82021484 104.19867187 -19.99199219 105.02625 -19.13867188 105.87890625 C-14.3441901 111.06670583 -14.3441901 111.06670583 -8.01513672 113.57836914 C-3.16678303 112.90739482 -1.11990011 110.26701187 2.15625 106.8046875 C2.79466827 106.15540787 3.43308655 105.50612823 4.09085083 104.83717346 C6.12987056 102.75801334 8.1473394 100.65936705 10.1640625 98.55859375 C12.17771469 96.4871669 14.1956374 94.42002302 16.21585083 92.35499573 C17.46953698 91.07067873 18.71879081 89.78201334 19.96261597 88.48814392 C23.66168846 84.66521726 27.50302235 81.09785053 31.54263306 77.63601685 C33.75259218 75.71900948 35.79911573 73.7025245 37.7890625 71.55859375 C38.459375 70.85605469 39.1296875 70.15351562 39.8203125 69.4296875 C41.71961109 66.44435381 41.71036341 64.5991668 41.2890625 61.12109375 C39.2890625 58.12109375 39.2890625 58.12109375 36.2890625 56.12109375 C31.38380067 55.50927143 29.41128002 56.25885224 26.046875 59.8125 Z " fill="#A4EC8A" transform="translate(1110.7109375,898.87890625)"/>
</svg>
