<?xml version="1.0" encoding="UTF-8"?>
<svg version="1.1" xmlns="http://www.w3.org/2000/svg" width="3509" height="2481">
<path d="M0 0 C1.42425797 0.03208557 1.42425797 0.03208557 2.87728882 0.06481934 C66.8698155 1.61894171 132.53560148 20.54410812 180.4296875 64.7421875 C182.45225254 66.59678866 184.52233984 68.36285161 186.625 70.125 C226.91501292 105.3888946 248.66918318 162.55939087 252.47216797 214.91357422 C256.86561563 294.463868 237.19468824 373.50596585 174.38085938 550.87158203 C137.86849959 637.6422695 137.86849959 637.6422695 141.875 728.125 C147.83032339 741.20893437 156.64616891 750.2208767 169.87109375 755.8125 C186.98446057 761.88881332 204.82667518 758.59952214 221.08984375 751.53125 C230.1510577 747.20233128 237.59912383 741.34414676 244.76831055 734.40551758 C247.09014021 732.16972587 248.58041587 730.84819471 251.6875 729.8125 C242.07701435 774.30300002 220.64863977 817.35219563 193.6875 853.8125 C193.25727539 854.39580078 192.82705078 854.97910156 192.38378906 855.58007812 C178.05798669 874.88244729 161.74523525 892.94290454 143.6875 908.8125 C143.17010254 909.26931152 142.65270508 909.72612305 142.11962891 910.19677734 C81.28861124 963.60614579 -0.18624269 995.07593158 -81.43359375 990.50390625 C-125.97510402 987.54645713 -172.74396502 977.37978894 -208.3125 948.8125 C-208.86583008 948.3705127 -209.41916016 947.92852539 -209.98925781 947.47314453 C-252.13407513 913.49433789 -271.15398056 864.69438325 -276.87890625 811.8984375 C-285.17250587 723.23695527 -256.46928827 635.05293864 -212.625 504.75 C-207.56233834 490.32991304 -202.56301237 475.89002092 -197.68856812 461.40505981 C-196.99311511 459.34200829 -196.29453299 457.28000827 -195.59243774 455.21920776 C-183.03729846 419.43707089 -183.03729846 419.43707089 -188.56640625 383.08203125 C-193.76138662 373.72540447 -201.30480828 367.55450647 -211.3125 363.8125 C-225.73957836 359.7072338 -237.58503922 363.87230559 -250.32177734 370.68164062 C-296.43617175 396.87760272 -318.19938909 454.19474645 -331.5625 502.375 C-352.21734194 578.90226356 -350.59648687 649.90301645 -351.3125 730.8125 C-457.9025 730.8125 -564.4925 730.8125 -674.3125 730.8125 C-674.3125 493.8725 -674.3125 256.9325 -674.3125 12.8125 C-564.7525 12.8125 -455.1925 12.8125 -342.3125 12.8125 C-342.3125 133.2625 -342.3125 253.7125 -342.3125 377.8125 C-340.6625 377.8125 -339.0125 377.8125 -337.3125 377.8125 C-337.17787354 376.92731689 -337.04324707 376.04213379 -336.90454102 375.13012695 C-322.90945698 284.00812898 -300.30082015 193.17439263 -191.890625 63.8359375 C-189.09632224 61.64283321 -186.43489666 59.32544328 -183.75 57 C-132.38319778 14.20540669 -65.49940283 -1.54420158 0 0 Z " fill="#A4EC8A" transform="translate(1933.3125,740.1875)"/>
<path d="M0 0 C31.7013532 -0.67534211 65.14811511 8.19851606 88.48413086 30.54443359 C90.02127712 32.05702938 91.53989296 33.58614896 93.0546875 35.12109375 C94.39853516 36.44947266 94.39853516 36.44947266 95.76953125 37.8046875 C118.21648561 61.08172954 125.59462821 93.4327823 125.40795898 124.83935547 C125.22428591 134.51017074 124.33380469 143.72197857 122.0546875 153.12109375 C121.88839844 153.82202148 121.72210937 154.52294922 121.55078125 155.24511719 C114.50380321 183.96807768 97.91348408 208.1027777 72.9296875 224.18359375 C40.93079395 243.34528413 2.94338763 246.67718565 -32.9609375 237.9375 C-60.52036228 230.68670218 -85.22765123 213.83155824 -99.9453125 189.12109375 C-117.22547545 159.18147077 -122.50194706 121.75810008 -113.9453125 88.12109375 C-113.77902344 87.4569043 -113.61273437 86.79271484 -113.44140625 86.10839844 C-109.1151401 69.48432019 -101.64624834 54.5305296 -90.9453125 41.12109375 C-90.23761719 40.2290625 -89.52992188 39.33703125 -88.80078125 38.41796875 C-68.71493605 14.71741672 -38.79098961 3.28754748 -8.5078125 0.37109375 C-5.67246999 0.209187 -2.83750162 0.11666121 0 0 Z M31.87548828 89.07324219 C31.39668716 89.55175125 30.91788605 90.03026031 30.42457581 90.52326965 C28.8615888 92.08763696 27.30578424 93.65894089 25.75 95.23046875 C24.66042212 96.32378139 23.57039841 97.41664989 22.47994995 98.50909424 C19.62489523 101.37174896 16.77590062 104.24036058 13.92816162 107.11029053 C11.01566705 110.04332212 8.09743228 112.97063036 5.1796875 115.8984375 C-0.53425256 121.63376331 -6.24179788 127.3754003 -11.9453125 133.12109375 C-15.02914799 131.65017563 -17.0786133 130.19900059 -19.44140625 127.71484375 C-20.08271484 127.05355469 -20.72402344 126.39226562 -21.38476562 125.7109375 C-22.71493285 124.31965799 -24.04306645 122.92643128 -25.36914062 121.53125 C-29.93461064 116.70360601 -29.93461064 116.70360601 -35.9453125 114.12109375 C-40.24343131 114.19924136 -42.61010931 114.92245482 -46.3203125 117.12109375 C-49.29203159 120.51734414 -49.81520129 122.39787915 -50.328125 126.7421875 C-49.36940943 132.69991998 -44.16333018 137.21091106 -40.04296875 141.32421875 C-39.20360023 142.17001495 -39.20360023 142.17001495 -38.34727478 143.03289795 C-37.1706615 144.21522051 -35.99146458 145.39497703 -34.80981445 146.57226562 C-33.00774181 148.37116432 -31.21944446 150.18302667 -29.43164062 151.99609375 C-28.28206099 153.14794538 -27.13169674 154.29901459 -25.98046875 155.44921875 C-25.45010513 155.98879211 -24.91974152 156.52836548 -24.37330627 157.08428955 C-20.57199599 160.83892164 -17.54441802 163.06333585 -12.1328125 163.18359375 C-4.56185435 160.65994103 1.01441469 153.26233903 6.49072266 147.64916992 C9.13049178 144.96058254 11.83603778 142.4193531 14.69970703 139.96948242 C19.27010492 135.98700159 23.57095936 131.76652591 27.859375 127.484375 C28.66456573 126.68251266 29.46975647 125.88065033 30.29934692 125.05448914 C31.98635156 123.3725137 33.67203423 121.6892114 35.35644531 120.00463867 C37.9379513 117.42533701 40.52737454 114.8541606 43.1171875 112.28320312 C44.76090533 110.64241647 46.40415139 109.00115705 48.046875 107.359375 C48.82078583 106.59264969 49.59469666 105.82592438 50.39205933 105.03596497 C51.10685455 104.31809311 51.82164978 103.60022125 52.55810547 102.8605957 C53.18683563 102.23329056 53.8155658 101.60598541 54.46334839 100.95967102 C57.07992454 97.93657091 57.9869454 95.73077263 58.4296875 91.74609375 C57.98300135 87.42812768 56.8231164 85.42782827 54.0546875 82.12109375 C45.69845666 75.78188415 37.77270889 83.14546603 31.87548828 89.07324219 Z " fill="#A4EC8A" transform="translate(2255.9453125,1214.87890625)"/>
</svg>
